<?xml version="1.0" standalone="no"?>
<!DOCTYPE svg PUBLIC "-//W3C//DTD SVG 1.1//EN" "http://www.w3.org/Graphics/SVG/1.1/DTD/svg11.dtd" >
<svg xmlns="http://www.w3.org/2000/svg">
<metadata>Generated by IcoMoon</metadata>
<defs>
<font id="sailsicons" horiz-adv-x="1024">
<font-face units-per-em="1024" ascent="960" descent="-64" />
<missing-glyph horiz-adv-x="1024" />
<glyph unicode="&#x20;" horiz-adv-x="512" d="" />
<glyph unicode="&#xe900;" glyph-name="ellipsis-vertical" d="M516.692 666.948c-54.414 0-98.526 44.112-98.526 98.526s44.112 98.526 98.526 98.526c54.414 0 98.526-44.112 98.526-98.526s-44.112-98.526-98.526-98.526zM507.308 347.908c-54.414 0-98.526 44.112-98.526 98.526s44.112 98.526 98.526 98.526c54.414 0 98.526-44.112 98.526-98.526s-44.112-98.526-98.526-98.526zM510.436 32c-54.414 0-98.526 44.112-98.526 98.526s44.112 98.526 98.526 98.526c54.414 0 98.526-44.112 98.526-98.526s-44.112-98.526-98.526-98.526z" />
<glyph unicode="&#xe901;" glyph-name="angle-down" d="M153.606 652.802c6.548 0 13.096-2.5 18.096-7.5l340.3-340.304 340.3 340.304c10 10 26.2 10 36.2 0s10-26.2 0-36.2l-358.4-358.404c-10-10-26.204-10-36.204 0l-358.4 358.404c-10 10-10 26.2 0 36.2 5.008 5 11.56 7.5 18.108 7.5z" />
<glyph unicode="&#xe902;" glyph-name="social-pinterest" d="M548.621 876.517c-245.393 0-369.137-175.926-369.137-322.663 0-88.83 33.632-167.852 105.754-197.275 11.831-4.877 22.433-0.181 25.865 12.914 2.384 9.031 8.038 31.898 10.548 41.453 3.45 12.951 2.113 17.466-7.442 28.791-20.79 24.51-34.101 56.264-34.101 101.275 0 130.517 97.662 247.362 254.298 247.362 138.7 0 214.904-84.748 214.904-197.907 0-148.941-65.909-274.636-163.734-274.636-54.042 0-94.465 44.668-81.533 99.487 15.515 65.439 45.589 136.026 45.589 183.295 0 42.266-22.704 77.523-69.648 77.523-55.234 0-99.613-57.149-99.613-133.678 0-48.75 16.473-81.731 16.473-81.731s-56.517-239.505-66.433-281.445c-19.724-83.538-2.962-185.914-1.535-196.246 0.831-6.141 8.706-7.622 12.282-2.998 5.075 6.665 70.894 87.873 93.237 169.044 6.34 22.957 36.323 141.951 36.323 141.951 17.954-34.246 70.406-64.338 126.182-64.338 166.010 0 278.664 151.343 278.664 353.929 0.018 153.222-129.741 295.895-326.944 295.895z" />
<glyph unicode="&#xe903;" glyph-name="social-stackoverflow" d="M667.58 384.978l-299.417 176.598 37.715 63.945 299.417-176.598-37.715-63.945zM643.278 292.81l-335.705 90.244 19.274 71.698 335.705-90.244-19.274-71.698zM635.353 193.453l-346.165 31.912 6.814 73.92 346.165-31.912-6.814-73.92zM284.254 172.561h347.648v-74.254h-347.648v74.254zM750.341-1.819c0 0 0-17.342-0.583-17.342v-0.282h-556.231c0 0-17.336 0-17.336 0.282h-0.589v361.786h59.383v-303.533h455.973v303.533h59.383v-344.444zM584.020 791.234l195.862-287.223-61.348-41.835-195.862 287.223 61.348 41.835zM807.143 863.427l59.444-342.517-73.159-12.697-59.444 342.517 73.159 12.697z" />
<glyph unicode="&#xe904;" glyph-name="social-github" d="M512 960c-282.75 0-512-229.25-512-512 0-226.25 146.688-418.125 350.156-485.812 25.594-4.688 34.938 11.125 34.938 24.625 0 12.188-0.469 52.562-0.719 95.312-142.375-30.937-172.469 60.375-172.469 60.375-23.312 59.125-56.844 74.875-56.844 74.875-46.531 31.75 3.53 31.125 3.53 31.125 51.406-3.562 78.47-52.75 78.47-52.75 45.688-78.25 119.875-55.625 149-42.5 4.654 33 17.904 55.625 32.5 68.375-113.656 12.937-233.218 56.875-233.218 253.063 0 55.938 19.969 101.562 52.656 137.406-5.219 13-22.844 65.094 5.062 135.562 0 0 42.938 13.75 140.812-52.5 40.812 11.406 84.594 17.031 128.125 17.219 43.5-0.188 87.312-5.875 128.188-17.281 97.688 66.312 140.688 52.5 140.688 52.5 28-70.531 10.375-122.562 5.125-135.5 32.812-35.844 52.625-81.469 52.625-137.406 0-196.688-119.75-240-233.812-252.688 18.438-15.875 34.75-47 34.75-94.75 0-68.438-0.688-123.625-0.688-140.5 0-13.625 9.312-29.562 35.25-24.562 203.313 67.812 349.875 259.687 349.875 485.812 0 282.75-229.25 512-512 512z" />
<glyph unicode="&#xe905;" glyph-name="social-facebook" d="M730.255 567.346h-138.085v90.564c0 34.011 22.542 41.94 38.418 41.94 15.841 0 97.446 0 97.446 0v149.519l-134.202 0.524c-148.977 0-182.88-111.516-182.88-182.88v-99.667h-86.157v-154.071h86.157c0-197.727 0-435.967 0-435.967h181.218c0 0 0 240.588 0 435.967h122.281l15.804 154.071z" />
<glyph unicode="&#xe906;" glyph-name="social-twitter" d="M954.352 687.893c-32.711-14.54-67.914-24.348-104.851-28.737 37.714 22.578 66.631 58.341 80.268 101.004-35.275-20.934-74.326-36.124-115.923-44.325-33.289 35.474-80.738 57.655-133.245 57.655-100.805 0-182.537-81.731-182.537-182.555 0-14.287 1.608-28.213 4.732-41.597-151.722 7.622-286.25 80.286-376.29 190.737-15.714-26.949-24.709-58.305-24.709-91.792 0-63.326 32.223-119.21 81.208-151.939-29.911 0.957-58.070 9.176-82.689 22.849-0.018-0.759-0.018-1.535-0.018-2.312 0-88.433 62.929-162.199 146.448-178.996-15.317-4.154-31.446-6.394-48.1-6.394-11.777 0-23.21 1.138-34.354 3.287 23.246-72.52 90.654-125.316 170.525-126.779-62.477-48.967-141.174-78.155-226.717-78.155-14.721 0-29.261 0.867-43.548 2.565 80.81-51.82 176.757-82.020 279.838-82.020 335.794 0 519.396 278.158 519.396 519.396 0 7.911-0.163 15.804-0.506 23.643 35.655 25.684 66.613 57.853 91.070 94.465z" />
<glyph unicode="&#xe907;" glyph-name="times-circle" d="M859 101c-191.6-191.6-502.3-191.6-693.9 0s-191.7 502.3-0.1 694 502.3 191.6 694 0 191.6-502.3 0-694zM828.8 131.2c175 175 175 458.6 0 633.6s-458.6 175-633.6 0-175-458.6 0-633.6 458.6-174.9 633.6 0zM331 236.8l-30.2 30.2 181 181-181 181 30.2 30.2 181-181 181 181 30.2-30.2-181-181 181-181-30.2-30.2-181 181-181-181z" />
<glyph unicode="&#xe908;" glyph-name="plus-circle" d="M512-42.667c-270.988 0-490.667 219.679-490.667 490.667s219.679 490.667 490.667 490.667c270.988 0 490.667-219.679 490.667-490.667s-219.679-490.667-490.667-490.667zM512-0.001c247.424 0 448 200.576 448 448s-200.576 448-448 448c-247.424 0-448-200.576-448-448s200.576-448 448-448zM234.667 426.666v42.667h256v256h42.667v-256h256v-42.667h-256v-256h-42.667v256h-256z" />
<glyph unicode="&#xe909;" horiz-adv-x="2873" d="M300.196 262.952c-26.507 19.484-59.79 31.181-95.806 31.181-1.826 0-3.645-0.030-5.457-0.090-40.22 0.007-60.952-14.001-60.952-35.434 0-23.254 21.573-36.281 63.037-37.122 84.049-2.521 184.628-19.892 185.469-137.14 0.84-69.060-50.85-143.164-186.309-143.164-2.572-0.082-5.596-0.129-8.632-0.129-73.613 0-140.802 27.51-191.844 72.811l53.81 87.712c39.375-33.284 90.717-53.517 146.783-53.517 0.55 0 1.099 0.002 1.648 0.006 36.197-0.841 64.633 14.008 63.793 36.281 0 19.892-14.008 36.281-72.422 37.962-79.427 3.502-178.605 36.281-178.605 136.3 0 96.657 91.474 137.14 183.788 137.14 65.558 0 118.229-16.39 163.056-55.192z" />
<glyph unicode="&#xe90a;" horiz-adv-x="2873" d="M768.63 383.702h116.408v-426.13h-112.066l-6.864 53.511c-28.016-44.826-89.793-62.056-131.117-63.037-127.615-0.84-219.929 81.948-219.929 222.59s98.057 224.131 224.131 222.59c53.511 0 103.521-20.732 126.074-58.694zM539.736 170.637c-0.084-1.587-0.132-3.446-0.132-5.315 0-59.030 47.853-106.883 106.883-106.883 1.87 0 3.728 0.048 5.574 0.143 0.789-0.047 2.020-0.067 3.255-0.067 59.928 0 108.617 48.123 109.531 107.834 0.001 61.302-38.802 117.335-113.045 117.335-1.381 0.063-2.999 0.1-4.627 0.1-59.416 0-107.583-48.167-107.583-107.583 0-1.957 0.052-3.901 0.155-5.832z" />
<glyph unicode="&#xe90b;" horiz-adv-x="2873" d="M1101.465 496.749c0-93.155-141.483-93.155-141.483 0s141.483 92.594 141.483 0zM968.668 384.683v-427.11h124.253v426.97h-124.253z" />
<glyph unicode="&#xe90c;" horiz-adv-x="2873" d="M1301.643 560.486v-602.353h-123.412v602.353h123.412z" />
<glyph unicode="&#xe90d;" horiz-adv-x="2873" d="M1655.35 262.952c-26.507 19.484-59.79 31.181-95.806 31.181-1.826 0-3.645-0.030-5.457-0.090-40.22 0.007-60.952-14.001-60.952-35.434 0-23.254 21.573-36.281 63.037-37.122 84.049-2.521 184.628-19.892 185.469-137.14 0.84-69.060-50.85-143.164-186.309-143.164-2.557-0.081-5.563-0.127-8.58-0.127-73.63 0-140.834 27.509-191.896 72.81l53.811 87.711c39.375-33.284 90.717-53.517 146.783-53.517 0.55 0 1.099 0.002 1.648 0.006 36.197-0.841 64.633 14.008 63.793 36.281 0 19.892-14.008 36.281-72.422 37.962-79.427 3.502-178.605 36.281-178.605 136.3 0 96.657 91.474 137.14 183.788 137.14 65.558 0 118.229-16.39 163.056-55.192z" />
<glyph unicode="&#xe90e;" horiz-adv-x="2873" d="M1944.339-63.86s-391.389 622.945 413.802 1024v-1024h-413.802z" />
<glyph unicode="&#xe90f;" horiz-adv-x="2873" d="M2482.815-63.86v634.572s128.455-210.123 389.708-634.712h-389.708z" />
<glyph unicode="&#xe910;" glyph-name="logo-text-flagship" horiz-adv-x="3318" d="M69.258 603.847h359.927v-45.549h-359.927v-283.117h-48.226v626.072h420.654v-48.226h-372.428v-249.18zM583.693 901.253v-625.182h-43.762v625.182h43.762zM1130.279 717.276v-441.2h-43.762v93.774c-36.673-60.612-102.231-100.5-177.109-100.5-1.161 0-2.319 0.011-3.474 0.030-122.629-0.003-223.996 92.882-223.996 227.741s100.922 225.512 224.17 225.512c71.449 0 143.794-33.492 180.408-101.812v96.458h43.762zM725.691 496.675c0-110.747 80.383-184.872 180.408-184.872 245.606 0 245.606 368.409 0 368.409-100.027 0.445-180.408-72.79-180.408-183.537zM1603.628 735.139l28.577-25.010-42.872-50.013c31.26-33.492 54.479-78.143 54.479-150.045-0.309-82.277-48.183-153.291-117.546-187.009 76.908-28.232 119.329-82.71 119.329-158.622 0-118.784-92.885-175.945-209.882-175.945s-208.987 64.303-208.987 175.945h43.317c0-90.205 76.809-133.073 165.223-133.073s167.462 39.298 167.462 133.073-84.847 132.183-167.462 132.183c-127.715 0-207.205 95.561-207.205 213.456 0 137.534 92.885 215.243 207.205 215.243 46.871-0.658 90.126-15.599 125.749-40.665zM1272.277 510.518c0-91.098 62.52-169.694 163.439-169.694 91.098 0 165.223 78.143 165.223 169.694 0 111.637-74.125 171.48-165.223 171.48s-163.439-56.715-163.439-171.48zM2036.782 636.897c-44.657 39.298-88.421 46.44-137.534 46.44-68.772 0.889-134.859-25.010-133.073-81.273 1.787-58.947 78.143-70.559 133.97-80.383 78.143-13.398 186.659-26.796 182.195-129.499-2.677-97.348-103.599-122.803-181.302-122.803s-154.509 29.029-192.91 87.969l32.15 28.577c36.618-52.696 102.709-75.022 161.656-75.022 53.586 0 134.859 14.288 137.534 83.95 1.787 63.411-71.449 75.912-143.794 87.524-85.737 14.288-170.584 30.364-171.48 118.784-0.889 86.634 85.737 124.145 175.048 122.803 64.303 0 120.571-17.862 164.333-58.947zM2221.662 901.253v-266.145c35.724 63.411 97.348 87.524 158.972 88.421 122.803 0 184.872-79.486 184.872-194.697v-252.754h-42.872v252.754c0 91.098-42.872 152.722-142.007 152.722-92.885 0-157.185-71.449-157.185-163.439v-242.032h-43.762v625.182h41.975zM2737.876 861.065c0-46.44-70.559-46.44-70.559 0s70.559 46.44 70.559 0zM2679.828 719.058v-442.987h43.762v442.987h-43.762zM2848.625 92.098v625.182h42.872v-104.496c34.834 66.985 105.386 110.747 191.124 110.747 119.674-4.464 214.346-84.847 214.346-226.853 0-148.258-100.477-228.634-224.17-228.634-1.236-0.030-2.695-0.042-4.159-0.042-77.453 0-144.575 44.207-177.511 108.766l-0.523-284.669h-41.975zM3253.201 496.675c0 124.145-80.383 184.872-180.408 184.872-102.709 0-178.621-78.143-178.621-185.769s78.143-185.769 178.621-185.769 180.408 62.52 180.408 186.659z" />
<glyph unicode="&#xe911;" glyph-name="arrow-circle-right" d="M664.892 426.768l-129.516-129.516 30.17-30.17 181.019 181.019-181.019 181.019-30.17-30.17 129.583-129.583h-387.526v-42.6h387.459zM21.333 448c0 270.988 219.679 490.667 490.667 490.667s490.667-219.679 490.667-490.667c0-270.988-219.679-490.667-490.667-490.667s-490.667 219.679-490.667 490.667zM959.999 448c0 247.424-200.576 448-448 448s-448-200.576-448-448c0-247.424 200.576-448 448-448s448 200.576 448 448z" />
<glyph unicode="&#xe912;" glyph-name="caret-right" horiz-adv-x="951" d="M36.571 960v-1024l804.571 512-804.571 512z" />
<glyph unicode="&#xe913;" glyph-name="logo-sails" d="M94.72-64s-390.826 622.932 417.28 1024v-1024h-413.868zM634.028-64v634.88l389.972-634.88h-389.972z" />
<glyph unicode="&#xe914;" glyph-name="arrow-circle-left" d="M359.108 426.768l129.516-129.516-30.17-30.17-181.019 181.019 181.019 181.019 30.17-30.17-129.583-129.583h387.526v-42.6h-387.459zM1002.667 448c0 270.988-219.679 490.667-490.667 490.667s-490.667-219.679-490.667-490.667c0-270.988 219.679-490.667 490.667-490.667s490.667 219.679 490.667 490.667zM64.001 448c0 247.424 200.576 448 448 448s448-200.576 448-448c0-247.424-200.576-448-448-448s-448 200.576-448 448z" />
<glyph unicode="&#xe915;" glyph-name="arrow-right" d="M1024 447.712c0 8.544-3.52 16.704-9.376 22.848l-316.768 319.968c-12.512 12.64-32.768 12.608-45.248 0-12.512-12.608-12.512-33.088 0-45.696l262.176-264.8h-882.784c-17.664 0-32-14.464-32-32.32s14.336-32.32 32-32.32h882.752l-262.144-264.8c-12.512-12.608-12.48-33.088 0-45.696 12.512-12.608 32.768-12.608 45.248 0l316.768 319.968c5.984 6.048 9.28 14.368 9.376 22.848z" />
<glyph unicode="&#xe916;" glyph-name="info" d="M512 896c249.6 0 448-198.4 448-448s-198.4-448-448-448-448 198.4-448 448 198.4 448 448 448zM512 960c-281.6 0-512-230.4-512-512s230.4-512 512-512 512 230.4 512 512-230.4 512-512 512v0zM512 192c-38.4 0-64 25.6-64 64v192c0 38.4 25.6 64 64 64s64-25.6 64-64v-192c0-38.4-25.6-64-64-64zM576 640c0-35.346-28.654-64-64-64s-64 28.654-64 64c0 35.346 28.654 64 64 64s64-28.654 64-64z" />
<glyph unicode="&#xe917;" glyph-name="help" d="M512 959.638c-282.774 0-512-229.228-512-512s229.228-512.020 512-512.020 512 229.248 512 512.020-229.226 512-512 512zM512 18.284c-235.648 0-426.666 191.040-426.666 426.688s191.020 426.666 426.666 426.666 426.666-191.020 426.666-426.666-191.020-426.688-426.666-426.688zM486.016 278.506c-36.758 0-55.126-18.88-55.126-56.62 0-18.24 4.758-32.428 14.25-42.538s23.126-15.212 40.876-15.212c17.772 0 31.424 5.206 41.046 15.572s14.464 24.428 14.464 42.176c0 18.004-4.756 31.956-14.25 41.836s-23.252 14.784-41.26 14.784zM625.9 695.146c-28.756 24-67.626 36.010-116.608 36.010-48.704 0-94.784-10.092-138.368-29.994-24.448-11.008-13.484-35.968-13.44-36.096l9.772-20.46c0 0 11.54-19.562 36.416-9.94 0.256 0.084 0.342 0.044 0.576 0.15 10.752 4.5 21.632 8.682 32.682 12.372 20.246 6.74 42.24 10.132 66.004 10.132 26.24 0 46.358-5.632 60.372-16.876s20.992-27.37 20.992-48.384c0-18.004-4.332-33.492-12.948-46.508s-27.798-31.252-57.536-54.74c-24.98-19.5-42.496-38.38-52.5-56.618-10.004-18.26-14.998-41.152-14.998-68.65-0.96-20.010 24.534-24 24.534-24h15.404c0 0 29.312-0.172 33.792 25.088 0.064 0.342 0.172 0.448 0.236 0.788 1.024 16 4.692 29.248 11.328 39.38 7.872 12.010 23.466 27.136 46.698 45.396 27.244 21.248 46.422 38.508 57.536 51.754s19.456 27.178 24.96 41.812 8.256 31.318 8.256 50.070c-0.044 42.176-14.4 75.308-43.158 99.308z" />
<glyph unicode="&#xe918;" glyph-name="link" d="M915.936 828.96l-3.616 3.648c-53.568 53.536-140.64 53.536-194.176 0l-190.496-190.496c-39.008-38.976-49.248-95.744-31.392-144.448l-34.592-34.592c-48.672 17.856-105.44 7.616-144.448-31.392l-190.496-190.528c-53.536-53.504-53.536-140.64 0-194.144l3.648-3.68c53.536-53.504 140.64-53.504 194.144 0l190.496 190.528c39.008 39.040 49.248 95.776 31.424 144.48l34.56 34.56c48.672-17.824 105.44-7.584 144.448 31.392l190.496 190.528c53.568 53.504 53.568 140.608 0 194.144zM274.688 112.224c-20.896-20.864-54.912-20.864-75.84 0l-3.296 3.296c-20.896 20.896-20.896 55.008 0 75.84l133.6 133.6c-10.016-22.048-6.144-49.056 11.968-67.168 18.112-18.080 45.12-21.984 67.2-11.936l-133.632-133.632zM847.104 684.64l-132.288-132.288c9.984 22.080 6.080 49.024-12 67.136s-45.056 21.984-67.168 11.968l132.288 132.32c20.896 20.896 54.944 20.896 75.872 0l3.296-3.296c20.896-20.96 20.896-54.976 0-75.84z" />
<glyph unicode="&#xe919;" glyph-name="check" d="M886.528 691.296c-12.608 12.512-33.088 12.512-45.696 0l-457.216-454.176-201.024 198.176c-12.608 12.512-33.088 12.512-45.696 0s-12.608-32.768 0-45.248l223.968-220.768c12.48-12.352 33.248-12.352 45.728 0l479.936 476.768c12.64 12.48 12.64 32.768 0 45.248-12.608 12.512 12.64-12.48 0 0z" />
<glyph unicode="&#xe91a;" glyph-name="minus" d="M832 422.4h-640c-14.136 0-25.6 11.464-25.6 25.6s11.464 25.6 25.6 25.6h640c14.136 0 25.6-11.464 25.6-25.6s-11.464-25.6-25.6-25.6z" />
<glyph unicode="&#xe91b;" glyph-name="times" d="M780.405 759.956l-268.434-268.376-268.434 268.376c-12.823 12.823-32.16 14.25-44.989 1.442s-11.393-32.16 1.442-44.989l268.434-268.376-268.376-268.434c-12.823-12.823-14.25-32.16-1.442-44.989s32.16-11.393 44.989 1.442l268.376 268.434 268.434-268.434c12.823-12.823 32.16-14.25 44.989-1.442s11.393 32.16-1.442 44.989l-268.434 268.434 268.434 268.434c12.823 12.823 14.25 32.16 1.442 44.989s-32.211 11.336-44.989-1.492z" />
<glyph unicode="&#xe91c;" glyph-name="pencil" d="M646.802 810.366l149.366 149.366 227.458-227.46-149.366-149.366-227.46 227.46zM571.51 734.826l-533.98-532.908-37.53-265.918 265.918 38.6 532.908 532.908-227.318 227.318z" />
<glyph unicode="&#xe91d;" glyph-name="angle-right" d="M307.198 89.606c0 6.548 2.5 13.096 7.5 18.096l340.304 340.3-340.304 340.3c-10 10-10 26.2 0 36.2s26.2 10 36.2 0l358.404-358.4c10-10 10-26.204 0-36.204l-358.404-358.4c-10-10-26.2-10-36.2 0-5 5.008-7.5 11.56-7.5 18.108z" />
<glyph unicode="&#xe91e;" glyph-name="arrow-select" horiz-adv-x="951" d="M263.5 577.85h424l-212 333.2-212-333.2zM263.5 318.050l212-333.1 212 333.1h-424z" />
<glyph unicode="&#xe91f;" glyph-name="caret-down" horiz-adv-x="951" d="M753.318 666.285h-555.629l277.814-436.571 277.814 436.571z" />
</font>
</defs>
</svg>
